<?xml version="1.0" encoding="UTF-8" standalone="no"?>
<!DOCTYPE svg PUBLIC "-//W3C//DTD SVG 1.1//EN" "http://www.w3.org/Graphics/SVG/1.1/DTD/svg11.dtd">
<!-- Gegenereerd door Microsoft Visio, SVG Export suspended_beams.svg Pagina-1 -->
<svg xmlns="http://www.w3.org/2000/svg" xmlns:xlink="http://www.w3.org/1999/xlink" xmlns:ev="http://www.w3.org/2001/xml-events"
		xmlns:v="http://schemas.microsoft.com/visio/2003/SVGExtensions/" width="3.35333in" height="3.02802in"
		viewBox="0 0 241.44 218.017" xml:space="preserve" color-interpolation-filters="sRGB" class="st17">
	<v:documentProperties v:langID="1043" v:metric="true" v:viewMarkup="false"/>

	<style type="text/css">
	<![CDATA[
		.st1 {stroke:#000000;stroke-linecap:round;stroke-linejoin:round;stroke-width:1}
		.st2 {fill:#00cc99;stroke:#000000;stroke-linecap:round;stroke-linejoin:round;stroke-width:0.75}
		.st3 {stroke:#000000;stroke-linecap:round;stroke-linejoin:round;stroke-width:0.75}
		.st4 {stroke:#000000;stroke-linecap:round;stroke-linejoin:round;stroke-width:2}
		.st5 {fill:#ffffff;stroke:#000000;stroke-linecap:round;stroke-linejoin:round;stroke-width:0.75}
		.st6 {marker-start:url(#mrkr5-73);stroke:#800000;stroke-linecap:round;stroke-linejoin:round;stroke-width:2}
		.st7 {fill:#800000;fill-opacity:1;stroke:#800000;stroke-opacity:1;stroke-width:0.44247787610619}
		.st8 {stroke:#000000;stroke-linecap:round;stroke-linejoin:round;stroke-width:0.25}
		.st9 {marker-end:url(#mrkr4-95);marker-start:url(#mrkr4-93);stroke:#000000;stroke-linecap:round;stroke-linejoin:round;stroke-width:0.25}
		.st10 {fill:#000000;fill-opacity:1;stroke:#000000;stroke-opacity:1;stroke-width:0.1219512195122}
		.st11 {fill:none;stroke:none;stroke-linecap:round;stroke-linejoin:round;stroke-width:0.75}
		.st12 {fill:#000000;font-family:Times New Roman;font-size:1.00001em}
		.st13 {fill:none;stroke:none;stroke-linecap:round;stroke-linejoin:round;stroke-width:0.24}
		.st14 {fill:#000000;font-family:Times New Roman;font-size:1.00001em;font-style:italic}
		.st15 {baseline-shift:-32.4941%;font-size:0.649882em;font-style:normal}
		.st16 {font-size:1em;font-style:normal}
		.st17 {fill:none;fill-rule:evenodd;font-size:12px;overflow:visible;stroke-linecap:square;stroke-miterlimit:3}
	]]>
	</style>

	<defs id="Markers">
		<g id="lend5">
			<path d="M 2 1 L 0 0 L 1.98117 -0.993387 C 1.67173 -0.364515 1.67301 0.372641 1.98465 1.00043 " style="stroke:none"/>
		</g>
		<marker id="mrkr5-73" class="st7" v:arrowType="5" v:arrowSize="2" v:setback="3.775" refX="3.775" orient="auto"
				markerUnits="strokeWidth" overflow="visible">
			<use xlink:href="#lend5" transform="scale(2.26) "/>
		</marker>
		<g id="lend4">
			<path d="M 2 1 L 0 0 L 2 -1 L 2 1 " style="stroke:none"/>
		</g>
		<marker id="mrkr4-93" class="st10" v:arrowType="4" v:arrowSize="1" v:setback="14.96" refX="14.96" orient="auto"
				markerUnits="strokeWidth" overflow="visible">
			<use xlink:href="#lend4" transform="scale(8.2) "/>
		</marker>
		<marker id="mrkr4-95" class="st10" v:arrowType="4" v:arrowSize="1" v:setback="16.4" refX="-16.4" orient="auto"
				markerUnits="strokeWidth" overflow="visible">
			<use xlink:href="#lend4" transform="scale(-8.2,-8.2) "/>
		</marker>
	</defs>
	<g v:mID="0" v:index="1" v:groupContext="foregroundPage">
		<title>Pagina-1</title>
		<v:pageProperties v:drawingScale="0.0393701" v:pageScale="0.0393701" v:drawingUnits="24" v:shadowOffsetX="8.50394"
				v:shadowOffsetY="-8.50394"/>
		<g id="shape27-1" v:mID="27" v:groupContext="shape" transform="translate(-61.9918,146.316) rotate(-90)">
			<title>Vakwerk, 1 pt.27</title>
			<path d="M0 218.02 L56.69 218.02" class="st1"/>
		</g>
		<g id="shape26-4" v:mID="26" v:groupContext="shape" transform="translate(-33.6453,89.6233) rotate(-90)">
			<title>Vakwerk, 1 pt.26</title>
			<path d="M0 218.02 L56.69 218.02" class="st1"/>
		</g>
		<g id="shape24-7" v:mID="24" v:groupContext="shape" transform="translate(-147.031,89.6233) rotate(-90)">
			<title>Vakwerk, 1 pt.24</title>
			<path d="M0 218.02 L28.35 218.02" class="st1"/>
		</g>
		<g id="shape23-10" v:mID="23" v:groupContext="shape" transform="translate(-175.378,61.2768) rotate(-90)">
			<title>Vakwerk, 1 pt.23</title>
			<path d="M0 218.02 L28.35 218.02" class="st1"/>
		</g>
		<g id="shape22-13" v:mID="22" v:groupContext="shape" transform="translate(-203.724,146.316) rotate(-90)">
			<title>Vakwerk, 1 pt</title>
			<path d="M0 218.02 L113.39 218.02" class="st1"/>
		</g>
		<g id="group1-16" transform="translate(24.2145,239.609) rotate(180)" v:mID="1" v:groupContext="group">
			<title>Scharnieroplegging</title>
			<g id="shape2-17" v:mID="2" v:groupContext="shape" transform="translate(2.83465,0)">
				<title>Blad.2</title>
				<path d="M0 218.02 L14.17 218.02 L7.09 206.68 L0 218.02 Z" class="st2"/>
			</g>
			<g id="shape3-19" v:mID="3" v:groupContext="shape" transform="translate(2.83465,436.035) rotate(180)">
				<title>Blad.3</title>
				<path d="M0 218.02 L2.83 218.02" class="st3"/>
			</g>
			<g id="shape4-22" v:mID="4" v:groupContext="shape" transform="translate(17.0079,0)">
				<title>Blad.4</title>
				<path d="M0 218.02 L2.83 218.02" class="st3"/>
			</g>
		</g>
		<g id="group5-25" transform="translate(52.5609,239.609) rotate(180)" v:mID="5" v:groupContext="group">
			<title>Scharnieroplegging.5</title>
			<g id="shape6-26" v:mID="6" v:groupContext="shape" transform="translate(2.83465,0)">
				<title>Blad.6</title>
				<path d="M0 218.02 L14.17 218.02 L7.09 206.68 L0 218.02 Z" class="st2"/>
			</g>
			<g id="shape7-28" v:mID="7" v:groupContext="shape" transform="translate(2.83465,436.035) rotate(180)">
				<title>Blad.7</title>
				<path d="M0 218.02 L2.83 218.02" class="st3"/>
			</g>
			<g id="shape8-31" v:mID="8" v:groupContext="shape" transform="translate(17.0079,0)">
				<title>Blad.8</title>
				<path d="M0 218.02 L2.83 218.02" class="st3"/>
			</g>
		</g>
		<g id="shape9-34" v:mID="9" v:groupContext="shape" transform="translate(42.6397,-156.74)">
			<title>Ligger, 2 pt</title>
			<path d="M0 218.02 L141.73 218.02" class="st4"/>
		</g>
		<g id="shape10-37" v:mID="10" v:groupContext="shape" transform="translate(70.9861,-128.394)">
			<title>Ligger, 2 pt.10</title>
			<path d="M0 218.02 L113.39 218.02" class="st4"/>
		</g>
		<g id="shape11-40" v:mID="11" v:groupContext="shape" transform="translate(14.2932,-71.7011)">
			<title>Ligger, 2 pt.11</title>
			<path d="M0 218.02 L141.73 218.02" class="st4"/>
		</g>
		<g id="group12-43" transform="translate(194.293,239.609) rotate(180)" v:mID="12" v:groupContext="group">
			<title>Scharnieroplegging.12</title>
			<g id="shape13-44" v:mID="13" v:groupContext="shape" transform="translate(2.83465,0)">
				<title>Blad.13</title>
				<path d="M0 218.02 L14.17 218.02 L7.09 206.68 L0 218.02 Z" class="st2"/>
			</g>
			<g id="shape14-46" v:mID="14" v:groupContext="shape" transform="translate(2.83465,436.035) rotate(180)">
				<title>Blad.14</title>
				<path d="M0 218.02 L2.83 218.02" class="st3"/>
			</g>
			<g id="shape15-49" v:mID="15" v:groupContext="shape" transform="translate(17.0079,0)">
				<title>Blad.15</title>
				<path d="M0 218.02 L2.83 218.02" class="st3"/>
			</g>
		</g>
		<g id="shape16-52" v:mID="16" v:groupContext="shape" transform="translate(40.5137,-154.614)">
			<title>Scharnier</title>
			<ellipse cx="2.12598" cy="215.891" rx="2.12598" ry="2.12598" class="st5"/>
		</g>
		<g id="shape17-54" v:mID="17" v:groupContext="shape" transform="translate(182.246,-154.614)">
			<title>Scharnier.17</title>
			<ellipse cx="2.12598" cy="215.891" rx="2.12598" ry="2.12598" class="st5"/>
		</g>
		<g id="shape18-56" v:mID="18" v:groupContext="shape" transform="translate(68.8602,-126.268)">
			<title>Scharnier.18</title>
			<ellipse cx="2.12598" cy="215.891" rx="2.12598" ry="2.12598" class="st5"/>
		</g>
		<g id="shape19-58" v:mID="19" v:groupContext="shape" transform="translate(182.246,-126.268)">
			<title>Scharnier.19</title>
			<ellipse cx="2.12598" cy="215.891" rx="2.12598" ry="2.12598" class="st5"/>
		</g>
		<g id="shape20-60" v:mID="20" v:groupContext="shape" transform="translate(12.1672,-69.5751)">
			<title>Scharnier.20</title>
			<ellipse cx="2.12598" cy="215.891" rx="2.12598" ry="2.12598" class="st5"/>
		</g>
		<g id="shape21-62" v:mID="21" v:groupContext="shape" transform="translate(153.9,-69.5751)">
			<title>Scharnier.21</title>
			<ellipse cx="2.12598" cy="215.891" rx="2.12598" ry="2.12598" class="st5"/>
		</g>
		<g id="shape25-64" v:mID="25" v:groupContext="shape" transform="translate(68.8602,-151.78)">
			<title>Scharnier.25</title>
			<ellipse cx="2.12598" cy="215.891" rx="2.12598" ry="2.12598" class="st5"/>
		</g>
		<g id="shape28-66" v:mID="28" v:groupContext="shape" transform="translate(153.9,-124.142)">
			<title>Scharnier.28</title>
			<ellipse cx="2.12598" cy="215.891" rx="2.12598" ry="2.12598" class="st5"/>
		</g>
		<g id="shape29-68" v:mID="29" v:groupContext="shape" transform="translate(-125.771,146.316) rotate(-90)">
			<title>Kracht</title>
			<path d="M7.55 218.02 L7.91 218.02 L28.35 218.02" class="st6"/>
		</g>
		<g id="shape30-74" v:mID="30" v:groupContext="shape" transform="translate(-83.2516,61.2768) rotate(-90)">
			<title>Kracht.30</title>
			<path d="M7.55 218.02 L7.91 218.02 L28.35 218.02" class="st6"/>
		</g>
		<g id="group31-79" transform="translate(14.2932,-29.1814)" v:mID="31" v:groupContext="group">
			<title>Maatlijn</title>
			<g id="group32-80" transform="translate(0,-9.92126)" v:mID="32" v:groupContext="group">
				<title>Maatlijn.31</title>
				<g id="shape33-81" v:mID="33" v:groupContext="shape" transform="translate(218.017,209.513) rotate(90)">
					<title>Blad.33</title>
					<path d="M0 218.02 L8.5 218.02" class="st8"/>
				</g>
				<g id="shape34-84" v:mID="34" v:groupContext="shape" transform="translate(246.364,209.513) rotate(90)">
					<title>Blad.34</title>
					<path d="M0 218.02 L8.5 218.02" class="st8"/>
				</g>
				<g id="shape35-87" v:mID="35" v:groupContext="shape" transform="translate(0,-4.25197)">
					<title>Blad.35</title>
					<path d="M3.74 218.02 L4.1 218.02 L24.25 218.02" class="st9"/>
				</g>
			</g>
			<g id="shape36-96" v:mID="36" v:groupContext="shape">
				<title>Blad.36</title>
				<desc>2 m</desc>
				<v:textBlock v:margins="rect(4,4,4,4)" v:tabSpace="42.5197"/>
				<v:textRect cx="14.1732" cy="210.931" width="28.35" height="14.1732"/>
				<rect x="0" y="203.844" width="28.3465" height="14.1732" class="st11"/>
				<text x="5.01" y="214.53" class="st12" v:langID="1043"><v:paragraph v:horizAlign="1"/><v:tabList/>2 m</text>			</g>
		</g>
		<g id="group37-99" transform="translate(42.6397,-29.1814)" v:mID="37" v:groupContext="group">
			<title>Maatlijn.37</title>
			<g id="group38-100" transform="translate(0,-9.92126)" v:mID="38" v:groupContext="group">
				<title>Maatlijn.31</title>
				<g id="shape39-101" v:mID="39" v:groupContext="shape" transform="translate(218.017,209.513) rotate(90)">
					<title>Blad.39</title>
					<path d="M0 218.02 L8.5 218.02" class="st8"/>
				</g>
				<g id="shape40-104" v:mID="40" v:groupContext="shape" transform="translate(246.364,209.513) rotate(90)">
					<title>Blad.40</title>
					<path d="M0 218.02 L8.5 218.02" class="st8"/>
				</g>
				<g id="shape41-107" v:mID="41" v:groupContext="shape" transform="translate(0,-4.25197)">
					<title>Blad.41</title>
					<path d="M3.74 218.02 L4.1 218.02 L24.25 218.02" class="st9"/>
				</g>
			</g>
			<g id="shape42-114" v:mID="42" v:groupContext="shape">
				<title>Blad.42</title>
				<desc>2 m</desc>
				<v:textBlock v:margins="rect(4,4,4,4)" v:tabSpace="42.5197"/>
				<v:textRect cx="14.1732" cy="210.931" width="28.35" height="14.1732"/>
				<rect x="0" y="203.844" width="28.3465" height="14.1732" class="st11"/>
				<text x="5.01" y="214.53" class="st12" v:langID="1043"><v:paragraph v:horizAlign="1"/><v:tabList/>2 m</text>			</g>
		</g>
		<g id="group43-117" transform="translate(70.9861,-29.1814)" v:mID="43" v:groupContext="group">
			<title>Maatlijn.43</title>
			<g id="group44-118" transform="translate(0,-9.92126)" v:mID="44" v:groupContext="group">
				<title>Maatlijn.31</title>
				<g id="shape45-119" v:mID="45" v:groupContext="shape" transform="translate(218.017,209.513) rotate(90)">
					<title>Blad.45</title>
					<path d="M0 218.02 L8.5 218.02" class="st8"/>
				</g>
				<g id="shape46-122" v:mID="46" v:groupContext="shape" transform="translate(303.057,209.513) rotate(90)">
					<title>Blad.46</title>
					<path d="M0 218.02 L8.5 218.02" class="st8"/>
				</g>
				<g id="shape47-125" v:mID="47" v:groupContext="shape" transform="translate(0,-4.25197)">
					<title>Blad.47</title>
					<path d="M3.74 218.02 L4.1 218.02 L80.94 218.02" class="st9"/>
				</g>
			</g>
			<g id="shape48-132" v:mID="48" v:groupContext="shape">
				<title>Blad.48</title>
				<desc>6 m</desc>
				<v:textBlock v:margins="rect(4,4,4,4)" v:tabSpace="42.5197"/>
				<v:textRect cx="42.5197" cy="210.931" width="85.04" height="14.1732"/>
				<rect x="0" y="203.844" width="85.0394" height="14.1732" class="st11"/>
				<text x="33.35" y="214.53" class="st12" v:langID="1043"><v:paragraph v:horizAlign="1"/><v:tabList/>6 m</text>			</g>
		</g>
		<g id="group55-135" transform="translate(156.026,-29.1814)" v:mID="55" v:groupContext="group">
			<title>Maatlijn.55</title>
			<g id="group56-136" transform="translate(0,-9.92126)" v:mID="56" v:groupContext="group">
				<title>Maatlijn.31</title>
				<g id="shape57-137" v:mID="57" v:groupContext="shape" transform="translate(218.017,209.513) rotate(90)">
					<title>Blad.57</title>
					<path d="M0 218.02 L8.5 218.02" class="st8"/>
				</g>
				<g id="shape58-140" v:mID="58" v:groupContext="shape" transform="translate(246.364,209.513) rotate(90)">
					<title>Blad.58</title>
					<path d="M0 218.02 L8.5 218.02" class="st8"/>
				</g>
				<g id="shape59-143" v:mID="59" v:groupContext="shape" transform="translate(0,-4.25197)">
					<title>Blad.59</title>
					<path d="M3.74 218.02 L4.1 218.02 L24.25 218.02" class="st9"/>
				</g>
			</g>
			<g id="shape60-150" v:mID="60" v:groupContext="shape">
				<title>Blad.60</title>
				<desc>2 m</desc>
				<v:textBlock v:margins="rect(4,4,4,4)" v:tabSpace="42.5197"/>
				<v:textRect cx="14.1732" cy="210.931" width="28.35" height="14.1732"/>
				<rect x="0" y="203.844" width="28.3465" height="14.1732" class="st11"/>
				<text x="5.01" y="214.53" class="st12" v:langID="1043"><v:paragraph v:horizAlign="1"/><v:tabList/>2 m</text>			</g>
		</g>
		<g id="group61-153" transform="translate(208.466,-156.74)" v:mID="61" v:groupContext="group">
			<title>Maatlijn verticaal</title>
			<g id="group62-154" transform="translate(-209.513,218.017) rotate(-90)" v:mID="62" v:groupContext="group">
				<title>Maatlijn.31</title>
				<g id="shape63-155" v:mID="63" v:groupContext="shape" transform="translate(218.017,209.513) rotate(90)">
					<title>Blad.63</title>
					<path d="M0 218.02 L8.5 218.02" class="st8"/>
				</g>
				<g id="shape64-158" v:mID="64" v:groupContext="shape" transform="translate(246.364,209.513) rotate(90)">
					<title>Blad.64</title>
					<path d="M0 218.02 L8.5 218.02" class="st8"/>
				</g>
				<g id="shape65-161" v:mID="65" v:groupContext="shape" transform="translate(0,-4.25197)">
					<title>Blad.65</title>
					<path d="M3.74 218.02 L4.1 218.02 L24.25 218.02" class="st9"/>
				</g>
			</g>
			<g id="shape66-168" v:mID="66" v:groupContext="shape" transform="translate(4.25197,-11.3386)">
				<title>Blad.66</title>
				<desc>2 m</desc>
				<v:textBlock v:margins="rect(4,4,4,4)" v:tabSpace="42.5197"/>
				<v:textRect cx="14.1732" cy="215.183" width="28.35" height="5.66929"/>
				<rect x="0" y="212.348" width="28.3465" height="5.66929" class="st11"/>
				<text x="5.01" y="218.78" class="st12" v:langID="1043"><v:paragraph v:horizAlign="1"/><v:tabList/>2 m</text>			</g>
		</g>
		<g id="group67-171" transform="translate(208.466,-128.394)" v:mID="67" v:groupContext="group">
			<title>Maatlijn verticaal.67</title>
			<g id="group68-172" transform="translate(-209.513,218.017) rotate(-90)" v:mID="68" v:groupContext="group">
				<title>Maatlijn.31</title>
				<g id="shape69-173" v:mID="69" v:groupContext="shape" transform="translate(218.017,209.513) rotate(90)">
					<title>Blad.69</title>
					<path d="M0 218.02 L8.5 218.02" class="st8"/>
				</g>
				<g id="shape70-176" v:mID="70" v:groupContext="shape" transform="translate(246.364,209.513) rotate(90)">
					<title>Blad.70</title>
					<path d="M0 218.02 L8.5 218.02" class="st8"/>
				</g>
				<g id="shape71-179" v:mID="71" v:groupContext="shape" transform="translate(0,-4.25197)">
					<title>Blad.71</title>
					<path d="M3.74 218.02 L4.1 218.02 L24.25 218.02" class="st9"/>
				</g>
			</g>
			<g id="shape72-186" v:mID="72" v:groupContext="shape" transform="translate(4.25197,-11.3386)">
				<title>Blad.72</title>
				<desc>2 m</desc>
				<v:textBlock v:margins="rect(4,4,4,4)" v:tabSpace="42.5197"/>
				<v:textRect cx="14.1732" cy="215.183" width="28.35" height="5.66929"/>
				<rect x="0" y="212.348" width="28.3465" height="5.66929" class="st11"/>
				<text x="5.01" y="218.78" class="st12" v:langID="1043"><v:paragraph v:horizAlign="1"/><v:tabList/>2 m</text>			</g>
		</g>
		<g id="group73-189" transform="translate(208.466,-71.7011)" v:mID="73" v:groupContext="group">
			<title>Maatlijn verticaal.73</title>
			<g id="group74-190" transform="translate(-209.513,218.017) rotate(-90)" v:mID="74" v:groupContext="group">
				<title>Maatlijn.31</title>
				<g id="shape75-191" v:mID="75" v:groupContext="shape" transform="translate(218.017,209.513) rotate(90)">
					<title>Blad.75</title>
					<path d="M0 218.02 L8.5 218.02" class="st8"/>
				</g>
				<g id="shape76-194" v:mID="76" v:groupContext="shape" transform="translate(274.71,209.513) rotate(90)">
					<title>Blad.76</title>
					<path d="M0 218.02 L8.5 218.02" class="st8"/>
				</g>
				<g id="shape77-197" v:mID="77" v:groupContext="shape" transform="translate(0,-4.25197)">
					<title>Blad.77</title>
					<path d="M3.74 218.02 L4.1 218.02 L52.59 218.02" class="st9"/>
				</g>
			</g>
			<g id="shape78-204" v:mID="78" v:groupContext="shape" transform="translate(4.25197,-22.6772)">
				<title>Blad.78</title>
				<desc>4 m</desc>
				<v:textBlock v:margins="rect(4,4,4,4)" v:tabSpace="42.5197"/>
				<v:textRect cx="14.1732" cy="212.348" width="28.35" height="11.3386"/>
				<rect x="0" y="206.679" width="28.3465" height="11.3386" class="st11"/>
				<text x="5.01" y="215.95" class="st12" v:langID="1043"><v:paragraph v:horizAlign="1"/><v:tabList/>4 m</text>			</g>
		</g>
		<g id="shape79-207" v:mID="79" v:groupContext="shape" transform="translate(28.4665,-163.827)">
			<title>Punt A</title>
			<desc>A</desc>
			<v:textBlock v:margins="rect(4,4,4,4)" v:tabSpace="42.5197"/>
			<v:textRect cx="7.08661" cy="210.931" width="14.18" height="14.1732"/>
			<rect x="0" y="203.844" width="14.1732" height="14.1732" class="st13"/>
			<text x="4" y="214.53" class="st12" v:langID="1043"><v:paragraph v:horizAlign="1"/><v:tabList/>A</text>		</g>
		<g id="shape80-210" v:mID="80" v:groupContext="shape" transform="translate(184.372,-163.827)">
			<title>Punt A.80</title>
			<desc>B</desc>
			<v:textBlock v:margins="rect(4,4,4,4)" v:tabSpace="42.5197"/>
			<v:textRect cx="7.08661" cy="210.931" width="14.18" height="14.1732"/>
			<rect x="0" y="203.844" width="14.1732" height="14.1732" class="st13"/>
			<text x="4" y="214.53" class="st12" v:langID="1043"><v:paragraph v:horizAlign="1"/><v:tabList/>B</text>		</g>
		<g id="shape81-213" v:mID="81" v:groupContext="shape" transform="translate(56.8129,-135.481)">
			<title>Punt A.81</title>
			<desc>C</desc>
			<v:textBlock v:margins="rect(4,4,4,4)" v:tabSpace="42.5197"/>
			<v:textRect cx="7.08661" cy="210.931" width="14.18" height="14.1732"/>
			<rect x="0" y="203.844" width="14.1732" height="14.1732" class="st13"/>
			<text x="4" y="214.53" class="st12" v:langID="1043"><v:paragraph v:horizAlign="1"/><v:tabList/>C</text>		</g>
		<g id="shape82-216" v:mID="82" v:groupContext="shape" transform="translate(184.372,-135.481)">
			<title>Punt A.82</title>
			<desc>D</desc>
			<v:textBlock v:margins="rect(4,4,4,4)" v:tabSpace="42.5197"/>
			<v:textRect cx="7.08661" cy="210.931" width="14.18" height="14.1732"/>
			<rect x="0" y="203.844" width="14.1732" height="14.1732" class="st13"/>
			<text x="4" y="214.53" class="st12" v:langID="1043"><v:paragraph v:horizAlign="1"/><v:tabList/>D</text>		</g>
		<g id="shape83-219" v:mID="83" v:groupContext="shape" transform="translate(0.12,-92.9609)">
			<title>Punt A.83</title>
			<desc>E</desc>
			<v:textBlock v:margins="rect(4,4,4,4)" v:tabSpace="42.5197"/>
			<v:textRect cx="7.08661" cy="210.931" width="14.18" height="14.1732"/>
			<rect x="0" y="203.844" width="14.1732" height="14.1732" class="st13"/>
			<text x="4" y="214.53" class="st12" v:langID="1043"><v:paragraph v:horizAlign="1"/><v:tabList/>E</text>		</g>
		<g id="shape84-222" v:mID="84" v:groupContext="shape" transform="translate(156.026,-92.9609)">
			<title>Punt A.84</title>
			<desc>G</desc>
			<v:textBlock v:margins="rect(4,4,4,4)" v:tabSpace="42.5197"/>
			<v:textRect cx="7.08661" cy="210.931" width="14.18" height="14.1732"/>
			<rect x="0" y="203.844" width="14.1732" height="14.1732" class="st13"/>
			<text x="4" y="214.53" class="st12" v:langID="1043"><v:paragraph v:horizAlign="1"/><v:tabList/>G</text>		</g>
		<g id="shape86-225" v:mID="86" v:groupContext="shape" transform="translate(70.9861,-90.8349)">
			<title>Punt A.86</title>
			<desc>F2</desc>
			<v:textBlock v:margins="rect(4,4,4,4)" v:tabSpace="42.5197"/>
			<v:textRect cx="9.92126" cy="210.931" width="19.85" height="14.1732"/>
			<rect x="0" y="203.844" width="19.8425" height="14.1732" class="st13"/>
			<text x="4.31" y="214.53" class="st14" v:langID="1043"><v:paragraph v:horizAlign="1"/><v:tabList/>F<tspan dy="-0.279em"
						class="st15" v:baseFontSize="12">2</tspan></text>		</g>
		<g id="shape87-229" v:mID="87" v:groupContext="shape" transform="translate(114.923,-170.914)">
			<title>Punt A.87</title>
			<desc>F1</desc>
			<v:textBlock v:margins="rect(4,4,4,4)" v:tabSpace="42.5197"/>
			<v:textRect cx="9.92126" cy="210.931" width="19.85" height="14.1732"/>
			<rect x="0" y="203.844" width="19.8425" height="14.1732" class="st13"/>
			<text x="4.31" y="214.53" class="st14" v:langID="1043"><v:paragraph v:horizAlign="1"/><v:tabList/>F<tspan dy="-0.279em"
						class="st15" v:baseFontSize="12">1</tspan></text>		</g>
		<g id="group88-233" transform="translate(42.6397,-199.26)" v:mID="88" v:groupContext="group">
			<title>Maatlijn.88</title>
			<g id="group89-234" transform="translate(0,-9.92126)" v:mID="89" v:groupContext="group">
				<title>Maatlijn.31</title>
				<g id="shape90-235" v:mID="90" v:groupContext="shape" transform="translate(218.017,209.513) rotate(90)">
					<title>Blad.90</title>
					<path d="M0 218.02 L8.5 218.02" class="st8"/>
				</g>
				<g id="shape91-238" v:mID="91" v:groupContext="shape" transform="translate(310.143,209.513) rotate(90)">
					<title>Blad.91</title>
					<path d="M0 218.02 L8.5 218.02" class="st8"/>
				</g>
				<g id="shape92-241" v:mID="92" v:groupContext="shape" transform="translate(0,-4.25197)">
					<title>Blad.92</title>
					<path d="M3.74 218.02 L4.1 218.02 L88.03 218.02" class="st9"/>
				</g>
			</g>
			<g id="shape93-248" v:mID="93" v:groupContext="shape">
				<title>Blad.93</title>
				<desc>x1 m</desc>
				<v:textBlock v:margins="rect(4,4,4,4)" v:tabSpace="42.5197"/>
				<v:textRect cx="46.063" cy="210.931" width="92.13" height="14.1732"/>
				<rect x="0" y="203.844" width="92.126" height="14.1732" class="st11"/>
				<text x="35.28" y="214.53" class="st14" v:langID="1043"><v:paragraph v:horizAlign="1"/><v:tabList/>x<tspan
							dy="-0.279em" class="st15" v:baseFontSize="12">1</tspan><tspan dy="0.181em" class="st16"> </tspan><tspan
							class="st16">m</tspan></text>			</g>
		</g>
		<g id="group94-254" transform="translate(14.2932,-0.83492)" v:mID="94" v:groupContext="group">
			<title>Maatlijn.94</title>
			<g id="group95-255" transform="translate(0,-9.92126)" v:mID="95" v:groupContext="group">
				<title>Maatlijn.31</title>
				<g id="shape96-256" v:mID="96" v:groupContext="shape" transform="translate(218.017,209.513) rotate(90)">
					<title>Blad.96</title>
					<path d="M0 218.02 L8.5 218.02" class="st8"/>
				</g>
				<g id="shape97-259" v:mID="97" v:groupContext="shape" transform="translate(295.97,209.513) rotate(90)">
					<title>Blad.97</title>
					<path d="M0 218.02 L8.5 218.02" class="st8"/>
				</g>
				<g id="shape98-262" v:mID="98" v:groupContext="shape" transform="translate(0,-4.25197)">
					<title>Blad.98</title>
					<path d="M3.74 218.02 L4.1 218.02 L73.85 218.02" class="st9"/>
				</g>
			</g>
			<g id="shape99-269" v:mID="99" v:groupContext="shape">
				<title>Blad.99</title>
				<desc>x2 m</desc>
				<v:textBlock v:margins="rect(4,4,4,4)" v:tabSpace="42.5197"/>
				<v:textRect cx="38.9764" cy="210.931" width="77.96" height="14.1732"/>
				<rect x="0" y="203.844" width="77.9528" height="14.1732" class="st11"/>
				<text x="28.2" y="214.53" class="st14" v:langID="1043"><v:paragraph v:horizAlign="1"/><v:tabList/>x<tspan
							dy="-0.279em" class="st15" v:baseFontSize="12">2</tspan><tspan dy="0.181em" class="st16"> </tspan><tspan
							class="st16">m</tspan></text>			</g>
		</g>
	</g>
</svg>
